<svg xmlns="http://www.w3.org/2000/svg" viewBox="0 0 1471 360" width="1471" height="360" role="img" aria-label="Shimmer">
  <title>Shimmer</title>
  <defs>
    <linearGradient id="ink" x1="0" y1="0" x2="0" y2="1">
      <stop offset="0" stop-color="#E95420"/>
      <stop offset="1" stop-color="#BC3A12"/>
    </linearGradient>
  </defs>
  <g transform="translate(24.00,11.82) scale(0.586)">
<defs>
    <linearGradient id="pebble" gradientUnits="userSpaceOnUse" x1="130" y1="150" x2="420" y2="430">
      <stop offset="0" stop-color="#F9A83F"/>
      <stop offset="0.45" stop-color="#E95420"/>
      <stop offset="1" stop-color="#B5360F"/>
    </linearGradient>
    <radialGradient id="shine" cx="0.5" cy="0.5" r="0.5">
      <stop offset="0" stop-color="#FFFFFF" stop-opacity="0.55"/>
      <stop offset="1" stop-color="#FFFFFF" stop-opacity="0"/>
    </radialGradient>
    <radialGradient id="depth" cx="0.5" cy="0.5" r="0.5">
      <stop offset="0" stop-color="#6E1E06" stop-opacity="0.45"/>
      <stop offset="1" stop-color="#6E1E06" stop-opacity="0"/>
    </radialGradient>
    <radialGradient id="glow" cx="0.5" cy="0.5" r="0.5">
      <stop offset="0" stop-color="#FFF6E9" stop-opacity="0.85"/>
      <stop offset="1" stop-color="#FFF6E9" stop-opacity="0"/>
    </radialGradient>
    <path id="stone" d="M 95 290 C 95 205, 175 150, 270 150 C 350 150, 425 200, 425 285 C 425 365, 345 425, 245 425 C 160 425, 95 370, 95 290 Z"/>
    <clipPath id="pclip"><use href="#stone"/></clipPath>
  </defs>

  <!-- pebble body -->
  <use href="#stone" fill="url(#pebble)"/>

  <!-- shading + shimmer glow, clipped to the pebble so nothing spills onto the background -->
  <g clip-path="url(#pclip)">
    <ellipse cx="256" cy="362" rx="150" ry="92" fill="url(#depth)"/>
    <ellipse cx="205" cy="228" rx="118" ry="82" fill="url(#shine)" transform="rotate(-18 205 228)"/>
    <circle cx="318" cy="240" r="104" fill="url(#glow)"/>
    <circle cx="366" cy="196" r="40" fill="url(#glow)"/>
    <circle cx="352" cy="302" r="26" fill="url(#glow)"/>
  </g>

  <!-- shimmer sparkles -->
  <path d="M 318 168 Q 318 240 390 240 Q 318 240 318 312 Q 318 240 246 240 Q 318 240 318 168 Z" fill="#FFF6E9"/>
  <path d="M 366 170 Q 366 196 392 196 Q 366 196 366 222 Q 366 196 340 196 Q 366 196 366 170 Z" fill="#FFF6E9"/>
  <path d="M 352 287 Q 352 302 367 302 Q 352 302 352 317 Q 352 302 337 302 Q 352 302 352 287 Z" fill="#FFF6E9"/>
  </g>
  <g transform="translate(342.438,273.751) scale(0.109375,-0.109375)" fill="url(#ink)">
    <path d="M1047 1085L1047 813Q932 861 825 885Q718 909 623 909Q521 909 471 883Q422 858 422 805Q422 762 459 739Q497 716 594 705L657 696Q932 661 1027 581Q1122 501 1122 330Q1122 151 990 61Q858 -29 596 -29Q485 -29 366 -11Q248 6 123 41L123 313Q230 261 342 235Q455 209 571 209Q676 209 729 238Q782 267 782 324Q782 372 745 395Q709 419 600 432L537 440Q298 470 202 551Q106 632 106 797Q106 975 228 1061Q350 1147 602 1147Q701 1147 810 1132Q919 1117 1047 1085Z M2517 682L2517 0L2157 0L2157 111L2157 520Q2157 667 2150 722Q2144 777 2128 803Q2107 838 2071 857Q2035 877 1989 877Q1877 877 1813 790Q1749 704 1749 551L1749 0L1391 0L1391 1556L1749 1556L1749 956Q1830 1054 1921 1100Q2012 1147 2122 1147Q2316 1147 2416 1028Q2517 909 2517 682Z M2849 1120L3207 1120L3207 0L2849 0L2849 1120Z M4589 934Q4657 1038 4750 1092Q4844 1147 4956 1147Q5149 1147 5250 1028Q5351 909 5351 682L5351 0L4991 0L4991 584Q4992 597 4992 611Q4993 625 4993 651Q4993 770 4958 823Q4923 877 4845 877Q4743 877 4687 793Q4632 709 4630 550L4630 0L4270 0L4270 584Q4270 770 4238 823Q4206 877 4124 877Q4021 877 3965 792Q3909 708 3909 551L3909 0L3549 0L3549 1120L3909 1120L3909 956Q3975 1051 4060 1099Q4146 1147 4249 1147Q4365 1147 4454 1091Q4543 1035 4589 934Z M6723 934Q6791 1038 6884 1092Q6978 1147 7090 1147Q7283 1147 7384 1028Q7485 909 7485 682L7485 0L7125 0L7125 584Q7126 597 7126 611Q7127 625 7127 651Q7127 770 7092 823Q7057 877 6979 877Q6877 877 6821 793Q6766 709 6764 550L6764 0L6404 0L6404 584Q6404 770 6372 823Q6340 877 6258 877Q6155 877 6099 792Q6043 708 6043 551L6043 0L5683 0L5683 1120L6043 1120L6043 956Q6109 1051 6194 1099Q6280 1147 6383 1147Q6499 1147 6588 1091Q6677 1035 6723 934Z M8937 563L8937 461L8100 461Q8113 335 8191 272Q8269 209 8409 209Q8522 209 8640 242Q8759 276 8884 344L8884 68Q8757 20 8630 -4Q8503 -29 8376 -29Q8072 -29 7903 125Q7735 280 7735 559Q7735 833 7900 990Q8066 1147 8356 1147Q8620 1147 8778 988Q8937 829 8937 563Z M8569 682Q8569 784 8509 846Q8450 909 8354 909Q8250 909 8185 850Q8120 792 8104 682L8569 682Z M10040 815Q9993 837 9946 847Q9900 858 9853 858Q9715 858 9640 769Q9566 681 9566 516L9566 0L9208 0L9208 1120L9566 1120L9566 936Q9635 1046 9724 1096Q9814 1147 9939 1147Q9957 1147 9978 1145Q9999 1144 10039 1139L10040 815Z"/>
    <path d="M3028.0 1105.7 Q3028.0 1410.0 3332.3 1410.0 Q3028.0 1410.0 3028.0 1714.3 Q3028.0 1410.0 2723.7 1410.0 Q3028.0 1410.0 3028.0 1105.7 Z"/>
  </g>
</svg>
